<mxfile host="app.diagrams.net" agent="Mozilla/5.0 (Windows NT 10.0; Win64; x64) AppleWebKit/537.36 (KHTML, like Gecko) Chrome/129.0.0.0 Safari/537.36 Edg/129.0.0.0" version="24.7.17">
  <diagram name="Page-1" id="zefzoCZpzYkakzUvlwl7">
    <mxGraphModel dx="1349" dy="603" grid="1" gridSize="10" guides="1" tooltips="1" connect="1" arrows="1" fold="1" page="1" pageScale="1" pageWidth="850" pageHeight="1100" math="0" shadow="0">
      <root>
        <mxCell id="0" />
        <mxCell id="1" parent="0" />
        <mxCell id="EMinu-dNqLL3h6nO7Fgw-16" style="edgeStyle=orthogonalEdgeStyle;rounded=0;orthogonalLoop=1;jettySize=auto;html=1;" edge="1" parent="1" source="EMinu-dNqLL3h6nO7Fgw-1" target="EMinu-dNqLL3h6nO7Fgw-2">
          <mxGeometry relative="1" as="geometry" />
        </mxCell>
        <mxCell id="EMinu-dNqLL3h6nO7Fgw-21" style="edgeStyle=orthogonalEdgeStyle;rounded=0;orthogonalLoop=1;jettySize=auto;html=1;" edge="1" parent="1" source="EMinu-dNqLL3h6nO7Fgw-1" target="EMinu-dNqLL3h6nO7Fgw-5">
          <mxGeometry relative="1" as="geometry" />
        </mxCell>
        <mxCell id="EMinu-dNqLL3h6nO7Fgw-31" style="edgeStyle=orthogonalEdgeStyle;rounded=0;orthogonalLoop=1;jettySize=auto;html=1;" edge="1" parent="1" source="EMinu-dNqLL3h6nO7Fgw-1" target="EMinu-dNqLL3h6nO7Fgw-3">
          <mxGeometry relative="1" as="geometry" />
        </mxCell>
        <mxCell id="EMinu-dNqLL3h6nO7Fgw-32" style="edgeStyle=orthogonalEdgeStyle;rounded=0;orthogonalLoop=1;jettySize=auto;html=1;" edge="1" parent="1" source="EMinu-dNqLL3h6nO7Fgw-1" target="EMinu-dNqLL3h6nO7Fgw-8">
          <mxGeometry relative="1" as="geometry" />
        </mxCell>
        <mxCell id="EMinu-dNqLL3h6nO7Fgw-35" style="edgeStyle=orthogonalEdgeStyle;rounded=0;orthogonalLoop=1;jettySize=auto;html=1;exitX=0.75;exitY=0;exitDx=0;exitDy=0;entryX=0.5;entryY=1;entryDx=0;entryDy=0;" edge="1" parent="1" source="EMinu-dNqLL3h6nO7Fgw-1" target="EMinu-dNqLL3h6nO7Fgw-4">
          <mxGeometry relative="1" as="geometry" />
        </mxCell>
        <mxCell id="EMinu-dNqLL3h6nO7Fgw-1" value="User" style="html=1;dashed=0;whiteSpace=wrap;" vertex="1" parent="1">
          <mxGeometry x="280" y="110" width="110" height="40" as="geometry" />
        </mxCell>
        <mxCell id="EMinu-dNqLL3h6nO7Fgw-2" value="id" style="ellipse;whiteSpace=wrap;html=1;align=center;fontStyle=4;" vertex="1" parent="1">
          <mxGeometry x="110" y="30" width="100" height="40" as="geometry" />
        </mxCell>
        <mxCell id="EMinu-dNqLL3h6nO7Fgw-3" value="email" style="ellipse;whiteSpace=wrap;html=1;align=center;" vertex="1" parent="1">
          <mxGeometry x="170" y="200" width="100" height="40" as="geometry" />
        </mxCell>
        <mxCell id="EMinu-dNqLL3h6nO7Fgw-4" value="name" style="ellipse;whiteSpace=wrap;html=1;align=center;" vertex="1" parent="1">
          <mxGeometry x="360" y="30" width="100" height="40" as="geometry" />
        </mxCell>
        <mxCell id="EMinu-dNqLL3h6nO7Fgw-5" value="password" style="ellipse;whiteSpace=wrap;html=1;align=center;" vertex="1" parent="1">
          <mxGeometry x="480" y="35" width="100" height="30" as="geometry" />
        </mxCell>
        <mxCell id="EMinu-dNqLL3h6nO7Fgw-7" value="role" style="ellipse;whiteSpace=wrap;html=1;align=center;" vertex="1" parent="1">
          <mxGeometry x="300" y="200" width="100" height="40" as="geometry" />
        </mxCell>
        <mxCell id="EMinu-dNqLL3h6nO7Fgw-8" value="address" style="ellipse;whiteSpace=wrap;html=1;align=center;" vertex="1" parent="1">
          <mxGeometry x="440" y="200" width="100" height="40" as="geometry" />
        </mxCell>
        <mxCell id="EMinu-dNqLL3h6nO7Fgw-9" value="phone_number" style="ellipse;shape=doubleEllipse;margin=3;whiteSpace=wrap;html=1;align=center;" vertex="1" parent="1">
          <mxGeometry x="240" y="30" width="100" height="40" as="geometry" />
        </mxCell>
        <mxCell id="EMinu-dNqLL3h6nO7Fgw-33" style="edgeStyle=orthogonalEdgeStyle;rounded=0;orthogonalLoop=1;jettySize=auto;html=1;entryX=0.352;entryY=0.109;entryDx=0;entryDy=0;entryPerimeter=0;" edge="1" parent="1" source="EMinu-dNqLL3h6nO7Fgw-1" target="EMinu-dNqLL3h6nO7Fgw-7">
          <mxGeometry relative="1" as="geometry" />
        </mxCell>
        <mxCell id="EMinu-dNqLL3h6nO7Fgw-34" style="edgeStyle=orthogonalEdgeStyle;rounded=0;orthogonalLoop=1;jettySize=auto;html=1;exitX=0.25;exitY=0;exitDx=0;exitDy=0;entryX=0.678;entryY=0.75;entryDx=0;entryDy=0;entryPerimeter=0;" edge="1" parent="1" source="EMinu-dNqLL3h6nO7Fgw-1" target="EMinu-dNqLL3h6nO7Fgw-9">
          <mxGeometry relative="1" as="geometry" />
        </mxCell>
      </root>
    </mxGraphModel>
  </diagram>
</mxfile>
